<?xml version="1.0" encoding="UTF-8" standalone="no"?>
<svg
   xmlns:dc="http://purl.org/dc/elements/1.1/"
   xmlns:cc="http://creativecommons.org/ns#"
   xmlns:rdf="http://www.w3.org/1999/02/22-rdf-syntax-ns#"
   xmlns:svg="http://www.w3.org/2000/svg"
   xmlns="http://www.w3.org/2000/svg"
   version="1.1"
   id="svg2"
   viewBox="0 0 744.09448819 1052.3622047"
   height="297mm"
   width="210mm">
  <defs
     id="defs4" />
  <metadata
     id="metadata7">
    <rdf:RDF>
      <cc:Work
         rdf:about="">
        <dc:format>image/svg+xml</dc:format>
        <dc:type
           rdf:resource="http://purl.org/dc/dcmitype/StillImage" />
        <dc:title></dc:title>
      </cc:Work>
    </rdf:RDF>
  </metadata>
  <g
     id="layer1">
    <path
       id="path4203"
       d="m 453.51518,408.15766 c -18.47705,0 -31.82985,14.5608 -31.82985,34.4942 0,8.84 2.94999,17.3337 8.07388,22.707 2.24067,2.4151 4.30183,4.1007 7.41048,5.7422 4.91572,0.1493 9.82821,0.2309 14.73964,0.2324 l 6.57488,-5.1777 c -0.90625,-0.3182 -1.79247,-0.6319 -2.79548,-0.9707 -10.40305,-3.4667 -13.81897,-5.026 -16.92436,-7.9727 -3.26065,-3.2933 -5.43467,-9.0129 -5.43467,-14.9062 0,-12.8267 8.38459,-22.3614 19.87452,-22.3614 11.64519,0 19.72009,9.0142 20.49644,22.8809 l 11.95533,0 c -0.46581,-20.8 -13.35322,-34.668 -32.14081,-34.668 z m -213.37479,2.2539 0,66.0235 c 3.81409,-1.1717 7.64748,-2.2449 11.49128,-3.2207 l 0,-51.1895 16.14774,0 c 12.11101,0 20.18441,1.3864 26.39517,4.6797 7.76346,4.16 12.1116,12.8281 12.1116,24.4414 0,5.6118 -0.88171,10.395 -2.61846,14.3574 4.2029,-0.2227 8.40697,-0.3654 12.61394,-0.4394 1.08655,-4.0339 1.6489,-8.5013 1.6489,-13.3985 0,-16.12 -6.05433,-28.2536 -17.23373,-35.0136 -7.14239,-4.3334 -17.07968,-6.2403 -32.1408,-6.2403 l -28.41564,0 z m 94.31425,0 0,54.7227 c 3.82878,0.089 7.6589,0.215 11.48968,0.3789 l 0,-43.4883 16.30403,0 c 13.1979,0 21.42772,1.2145 26.08581,3.8145 6.67658,3.8133 10.4021,11.9584 10.4021,23.3984 0,8.1889 -2.45862,15.0603 -6.65779,19.2481 4.67499,0.3447 9.3495,0.674 14.02363,0.9921 2.80236,-5.5993 4.28012,-12.5051 4.28012,-20.2402 0,-14.7333 -4.96973,-26.3464 -13.66482,-32.0664 -7.14238,-4.8533 -15.83701,-6.7598 -30.58759,-6.7598 l -31.67517,0 z"
       style="font-style:normal;font-variant:normal;font-weight:normal;font-stretch:normal;font-size:medium;line-height:125%;font-family:'URW Gothic L';-inkscape-font-specification:'URW Gothic L, Normal';text-align:start;letter-spacing:0px;word-spacing:0px;writing-mode:lr-tb;text-anchor:start;opacity:0.96270782;fill:#16502d;fill-opacity:0.86068109;stroke:none;stroke-width:1px;stroke-linecap:butt;stroke-linejoin:miter;stroke-opacity:1" />
    <path
       id="path4197"
       d="m 488.80811,1025.735 c -0.30024,0.048 -0.7953,0.2116 -1.04102,0.498 0.51485,-0.035 1.03254,-0.057 1.54688,-0.094 -0.16557,-0.1377 -0.33781,-0.2688 -0.50586,-0.4043 z"
       style="font-style:normal;font-variant:normal;font-weight:normal;font-stretch:normal;font-size:medium;line-height:125%;font-family:'URW Gothic L';-inkscape-font-specification:'URW Gothic L, Normal';text-align:start;letter-spacing:0px;word-spacing:0px;writing-mode:lr-tb;text-anchor:start;opacity:0.52300002;fill:#000000;fill-opacity:1;stroke:none;stroke-width:1px;stroke-linecap:butt;stroke-linejoin:miter;stroke-opacity:1" />
    <path
       id="path4318"
       d="m 520.97747,468.46808 c -11.3201,3.1749 -22.84575,5.2585 -34.53125,6.5351 -33.65071,3.676 -68.62695,0.7125 -103.99025,-1.8691 -35.36337,-2.5817 -71.11003,-4.7822 -106.30469,0.3574 -4.39935,0.6425 -8.79113,1.4 -13.17188,2.2852 -22.89094,4.6245 -45.5079,12.7505 -67.61132,26.332 6.88892,-2.0983 13.81034,-3.8268 20.75391,-5.2305 4.40886,-0.8914 8.82426,-1.6524 13.24999,-2.2988 3.58504,-0.5235 7.17607,-0.9527 10.76953,-1.332 l 0,31.5879 11.49024,0 0,-32.5782 c 9.35148,-0.6281 18.7215,-0.8501 28.09179,-0.7871 l 22.2168,33.3653 14.2832,0 -22.2207,-33.0723 c 13.51883,0.4564 27.01964,1.3604 40.45313,2.3359 l 0,30.7364 11.48828,0 0,-23.7832 -0.50977,0.5156 0.084,-6.6621 c 24.90368,1.8294 49.52516,3.5185 73.52149,2.6387 3.80606,18.1356 16.8283,29.5449 34.78711,29.5449 19.87448,0 34.62501,-16.121 34.62501,-37.961 0,-1.4165 -0.0723,-2.8111 -0.20313,-4.1836 11.14618,-4.1646 22.06955,-9.5432 32.72852,-16.4765 z m -194.02932,11.8945 c 35.7847,0.2396 71.44946,4.8122 107.24025,6.0567 -47.38381,4.2604 -94.71601,-3.2245 -142.09962,-4.752 9.20097,-0.8353 18.44461,-1.2295 27.70117,-1.293 2.38678,-0.025 4.77255,-0.028 7.1582,-0.012 z m 149.834,8.4336 c 0.0109,0.3402 0.0234,0.6803 0.0234,1.0254 0,14.7333 -9.62729,25.4805 -22.66992,25.4805 -7.29766,0 -14.28234,-3.6399 -18.47461,-9.5332 -1.98988,-2.7503 -3.28159,-5.4454 -4.16601,-8.9336 2.75143,-0.2142 5.49778,-0.4535 8.23047,-0.752 12.5704,-1.3732 24.93594,-3.6826 37.05664,-7.2871 z"
       style="font-style:normal;font-variant:normal;font-weight:normal;font-stretch:normal;font-size:medium;line-height:125%;font-family:'URW Gothic L';-inkscape-font-specification:'URW Gothic L, Normal';text-align:start;letter-spacing:0px;word-spacing:0px;writing-mode:lr-tb;text-anchor:start;opacity:0.93599997;fill:#0b2817;fill-opacity:1;stroke:none;stroke-width:1px;stroke-linecap:butt;stroke-linejoin:miter;stroke-opacity:1" />
  </g>
</svg>
